<svg xmlns="http://www.w3.org/2000/svg" width="380" height="100" viewBox="0 0 380 100">
  <g>
    <path d="M139.7,72.6V27.4h9.9l19.8,31.7V27.4h9.1v45.2h-9.6l-20.1-32.4v32.4H139.7z" fill="#ffffff" />
    <path d="M209.7,72.6l-10.2-45.2h9.4l6.5,34.2l7.9-34.2h9.1l7.6,34.2l6.7-34.2h9.1l-10.4,45.2h-9.6l-7.8-32.1l-7.7,32.1H209.7z" fill="#ffffff" />
    <path d="M262.3,72.6V27.4h9.1v45.2H262.3z" fill="#ffffff" />
    <path d="M291.8,72.6V27.4h9.9l19.8,31.7V27.4h9.1v45.2h-9.6l-20.1-32.4v32.4H291.8z" fill="#ffffff" />
    <path d="M349.7,72.6V27.4h10v37.5h16.6v7.7H349.7z" fill="#ffffff" />
    <path d="M192.8,40.6c3.1-0.1,6.1,1.1,8.4,3.2c2.2,2.1,3.5,5,3.6,8.1c0,3.1-1.3,6-3.6,8.1c-2.3,2.1-5.3,3.3-8.4,3.2h-8.2V40.6H192.8z M192.8,55.5c1.8,0.1,3.5-0.6,4.7-1.8c1.2-1.2,1.8-2.9,1.7-4.6c0.1-1.7-0.5-3.4-1.7-4.6c-1.2-1.2-2.9-1.9-4.7-1.8h-4.6v12.9H192.8z" fill="#ffffff" />
    <path d="M325.1,40.6c3.1-0.1,6.1,1.1,8.4,3.2c2.2,2.1,3.5,5,3.6,8.1c0,3.1-1.3,6-3.6,8.1c-2.3,2.1-5.3,3.3-8.4,3.2h-8.2V40.6H325.1z M325.1,55.5c1.8,0.1,3.5-0.6,4.7-1.8c1.2-1.2,1.8-2.9,1.7-4.6c0.1-1.7-0.5-3.4-1.7-4.6c-1.2-1.2-2.9-1.9-4.7-1.8h-4.6v12.9H325.1z" fill="#ffffff" />
    <path d="M34.3,38.1L51.7,72h-13l-4.5-10H21.6l-4.4,10H4.3l17.3-33.9H34.3z M28.5,51.1l-3.7-9.6L21,51.1H28.5z" fill="#0088ff" />
    <path d="M67.5,38.1L84.9,72h-13l-4.5-10H54.9l-4.4,10H37.6l17.3-33.9H67.5z M61.8,51.1l-3.7-9.6l-3.8,9.6H61.8z" fill="#0088ff" />
    <path d="M86,72l20.8-33.9h13L140.5,72h-13.1l-4.5-10h-12.6l-4.4,10H86z M120.1,51.1l-3.7-9.6l-3.8,9.6H120.1z" fill="#0088ff" />
  </g>
</svg>
